<svg width="22" height="27" viewBox="0 0 22 27" fill="none" xmlns="http://www.w3.org/2000/svg">
<path d="M18.4765 14.1121C18.4471 10.8449 21.1523 9.25549 21.276 9.18149C19.7439 6.94834 17.3692 6.64322 16.5347 6.61889C14.5403 6.40906 12.6057 7.812 11.5897 7.812C10.5534 7.812 8.98888 6.63916 7.30267 6.67363C5.13281 6.70708 3.10287 7.96304 1.98955 9.91337C-0.308072 13.8901 1.40551 19.734 3.60681 22.9484C4.70796 24.5236 5.99467 26.2803 7.67885 26.2185C9.32653 26.1516 9.942 25.1693 11.9304 25.1693C13.9005 25.1693 14.4784 26.2185 16.1961 26.179C17.9644 26.1516 19.0777 24.5976 20.1404 23.0092C21.4129 21.2058 21.9239 19.4278 21.9442 19.3366C21.9036 19.3224 18.5109 18.0269 18.4765 14.1121ZM15.2318 4.50434C16.118 3.39638 16.7243 1.88903 16.556 0.359375C15.2734 0.416141 13.6693 1.24635 12.7456 2.32998C11.9283 3.28487 11.1983 4.85001 11.3869 6.32188C12.8277 6.42933 14.3071 5.59507 15.2318 4.50434Z" fill="white"/>
</svg>
