<svg width="135" height="45" viewBox="0 0 135 45" fill="none" xmlns="http://www.w3.org/2000/svg">
<path d="M135 34.8485C135 35.3587 134.899 35.8639 134.704 36.3352C134.509 36.8065 134.222 37.2347 133.861 37.5952C133.5 37.9558 133.072 38.2417 132.6 38.4366C132.128 38.6314 131.623 38.7315 131.112 38.7309H3.89257C2.86145 38.732 1.87212 38.3236 1.14215 37.5955C0.412176 36.8675 0.0013438 35.8794 0 34.8485V3.88749C0.00134318 2.85617 0.412013 1.86754 1.14184 1.13867C1.87166 0.409798 2.86098 0.000267698 3.89257 0H131.111C131.622 -1.73633e-08 132.128 0.10056 132.599 0.295937C133.071 0.491314 133.5 0.77768 133.861 1.13868C134.222 1.49968 134.508 1.92824 134.703 2.39989C134.899 2.87153 134.999 3.37702 134.999 3.88749L135 34.8485Z" fill="#3B6D71"/>
<path d="M134.574 40.4772C134.574 41.0674 134.474 41.6518 134.279 42.197C134.085 42.7422 133.799 43.2375 133.44 43.6546C133.081 44.0717 132.654 44.4024 132.184 44.6278C131.715 44.8532 131.212 44.9689 130.703 44.9683H4.03962C3.013 44.9696 2.02799 44.4971 1.30122 43.6549C0.574436 42.8127 0.1654 41.6697 0.164062 40.4772V4.66202C0.1654 3.46901 0.574274 2.32538 1.30091 1.48223C2.02754 0.639086 3.01254 0.165349 4.03962 0.165039H130.702C131.211 0.165039 131.714 0.281365 132.184 0.507374C132.653 0.733383 133.08 1.06465 133.44 1.48224C133.799 1.89984 134.084 2.3956 134.279 2.94119C134.473 3.48678 134.573 4.07152 134.573 4.66202L134.574 40.4772Z" fill="#3B6D71"/>
<path d="M29.4765 22.1121C29.4471 18.8449 32.1523 17.2555 32.276 17.1815C30.7439 14.9483 28.3692 14.6432 27.5347 14.6189C25.5403 14.4091 23.6057 15.812 22.5897 15.812C21.5534 15.812 19.9889 14.6392 18.3027 14.6736C16.1328 14.7071 14.1029 15.963 12.9895 17.9134C10.6919 21.8901 12.4055 27.734 14.6068 30.9484C15.708 32.5236 16.9947 34.2803 18.6789 34.2185C20.3265 34.1516 20.942 33.1693 22.9304 33.1693C24.9005 33.1693 25.4784 34.2185 27.1961 34.179C28.9644 34.1516 30.0777 32.5976 31.1404 31.0092C32.4129 29.2058 32.9239 27.4278 32.9442 27.3366C32.9036 27.3224 29.5109 26.0269 29.4765 22.1121ZM26.2318 12.5043C27.118 11.3964 27.7243 9.88903 27.556 8.35938C26.2734 8.41614 24.6693 9.24635 23.7456 10.33C22.9283 11.2849 22.1983 12.85 22.3869 14.3219C23.8277 14.4293 25.3071 13.5951 26.2318 12.5043Z" fill="white"/>
<path d="M53.3488 32.9271H51.0461L49.7848 28.9646H45.4004L44.1989 32.9271H41.957L46.3018 19.437H48.9848L53.3488 32.9271ZM49.4045 27.3022L48.2638 23.7796C48.1432 23.4198 47.916 22.5723 47.5835 21.2383H47.5429C47.4091 21.8121 47.1951 22.6595 46.9021 23.7796L45.7807 27.3022H49.4045ZM64.5003 27.9439C64.5003 29.5982 64.0511 30.9058 63.1517 31.8658C62.3467 32.7203 61.3459 33.1471 60.1525 33.1471C58.8637 33.1471 57.937 32.6879 57.3742 31.7675V36.8714H55.2125V26.397C55.2125 25.3579 55.1851 24.2926 55.1324 23.1998H57.0335L57.1542 24.7416H57.1947C57.9157 23.5799 59.0097 22.9991 60.4779 22.9991C61.6257 22.9991 62.5839 23.4522 63.3505 24.3595C64.116 25.2687 64.5003 26.4629 64.5003 27.9439ZM62.298 28.0229C62.298 27.0761 62.0851 26.2956 61.6572 25.6803C61.1897 25.0407 60.5621 24.7203 59.7753 24.7203C59.2419 24.7203 58.7572 24.8987 58.3243 25.2505C57.8903 25.6053 57.6064 26.0685 57.4736 26.6423C57.4143 26.8569 57.3806 27.0777 57.3732 27.3002V28.9231C57.3732 29.6296 57.5902 30.2267 58.0242 30.7153C58.4581 31.2018 59.0219 31.4461 59.7154 31.4461C60.5296 31.4461 61.1634 31.1309 61.6166 30.5054C62.0709 29.878 62.298 29.0508 62.298 28.0229ZM75.6913 27.9439C75.6913 29.5982 75.2421 30.9058 74.3428 31.8658C73.5367 32.7203 72.5369 33.1471 71.3425 33.1471C70.0537 33.1471 69.127 32.6879 68.5642 31.7675V36.8714H66.4025V26.397C66.4025 25.3579 66.3751 24.2926 66.3224 23.1998H68.2235L68.3442 24.7416H68.3848C69.1047 23.5799 70.1987 22.9991 71.6679 22.9991C72.8147 22.9991 73.7729 23.4522 74.5415 24.3595C75.306 25.2687 75.6913 26.4629 75.6913 27.9439ZM73.488 28.0229C73.488 27.0761 73.274 26.2956 72.8462 25.6803C72.3787 25.0407 71.7531 24.7203 70.9663 24.7203C70.4329 24.7203 69.9483 24.8987 69.5133 25.2505C69.0793 25.6053 68.7964 26.0685 68.6636 26.6423C68.5977 26.9099 68.5622 27.1278 68.5622 27.3002V28.9231C68.5622 29.6296 68.7802 30.2267 69.2121 30.7153C69.6461 31.2008 70.2099 31.4461 70.9054 31.4461C71.7207 31.4461 72.3544 31.1309 72.8066 30.5054C73.2609 29.878 73.488 29.0508 73.488 28.0229ZM88.2035 29.143C88.2035 30.2916 87.802 31.2252 87.004 31.9459C86.1259 32.7325 84.9001 33.1268 83.3284 33.1268C81.8764 33.1268 80.7124 32.8471 79.8343 32.2865L80.3342 30.4852C81.2823 31.0467 82.3236 31.3265 83.4572 31.3265C84.2724 31.3265 84.9061 31.142 85.3584 30.7761C85.8116 30.4091 86.0407 29.9185 86.0407 29.3062C86.0407 28.7578 85.8511 28.2986 85.479 27.9246C85.1049 27.5516 84.4864 27.2039 83.6174 26.8846C81.2549 26.0037 80.0726 24.7153 80.0726 23.0204C80.0726 21.9134 80.4904 21.0072 81.3238 20.2986C82.1573 19.5911 83.2625 19.2373 84.6374 19.2373C85.8653 19.2373 86.8884 19.4512 87.7006 19.878L87.1581 21.6397C86.3936 21.2262 85.5307 21.0194 84.5654 21.0194C83.803 21.0194 83.2047 21.2069 82.7768 21.5799C82.4169 21.9134 82.2344 22.3199 82.2344 22.8024C82.2344 23.3346 82.4422 23.7766 82.8559 24.1233C83.2149 24.4426 83.8699 24.7903 84.8169 25.1633C85.9789 25.6316 86.8326 26.177 87.3792 26.8035C87.9297 27.4299 88.2035 28.2115 88.2035 29.143ZM95.3691 24.8217H92.9863V29.5445C92.9863 30.7457 93.4061 31.3448 94.2477 31.3448C94.634 31.3448 94.9544 31.3123 95.2079 31.2444L95.2677 32.8856C94.8419 33.0447 94.2812 33.1248 93.5866 33.1248C92.7329 33.1248 92.0657 32.8643 91.584 32.3433C91.1044 31.8222 90.8631 30.9494 90.8631 29.7208V24.8176H89.4436V23.1957H90.8631V21.4147L92.9863 20.7741V23.1957H95.3691V24.8217ZM106.099 27.9834C106.099 29.4786 105.671 30.7062 104.817 31.6661C103.924 32.6545 102.736 33.1471 101.254 33.1471C99.8245 33.1471 98.6878 32.6737 97.8401 31.7279C96.9925 30.7801 96.5686 29.586 96.5686 28.1456C96.5686 26.6382 97.0067 25.4036 97.8797 24.4436C98.7547 23.4826 99.9329 23.0021 101.414 23.0021C102.842 23.0021 103.989 23.4765 104.857 24.4233C105.686 25.3417 106.099 26.5277 106.099 27.9834ZM103.858 28.0331C103.858 27.142 103.665 26.3777 103.279 25.7381C102.826 24.9656 102.177 24.5794 101.336 24.5794C100.47 24.5794 99.8062 24.9656 99.354 25.7381C98.9667 26.3777 98.774 27.1552 98.774 28.0736C98.774 28.9657 98.9667 29.732 99.354 30.3696C99.8214 31.142 100.473 31.5283 101.318 31.5283C102.144 31.5283 102.792 31.1339 103.261 30.3503C103.658 29.6955 103.858 28.9261 103.858 28.0331ZM113.129 25.1005C112.904 25.0599 112.676 25.0399 112.447 25.0407C111.687 25.0407 111.099 25.3265 110.685 25.9023C110.326 26.4091 110.146 27.0498 110.146 27.8232V32.9271H107.984V26.2632C107.986 25.242 107.965 24.221 107.921 23.2008H109.804L109.883 25.0619H109.943C110.172 24.4223 110.531 23.9063 111.024 23.5201C111.475 23.1827 112.023 22.9999 112.586 22.9991C112.786 22.9991 112.966 23.0133 113.127 23.0386L113.129 25.1005ZM122.797 27.6033C122.802 27.9318 122.776 28.2601 122.718 28.5835H116.232C116.257 29.5445 116.571 30.2804 117.173 30.7872C117.72 31.2394 118.426 31.4664 119.294 31.4664C120.255 31.4664 121.131 31.3144 121.919 31.0072L122.257 32.5065C121.337 32.9079 120.25 33.1076 118.995 33.1076C117.487 33.1076 116.302 32.6636 115.44 31.7776C114.581 30.8906 114.15 29.6985 114.15 28.2054C114.15 26.7396 114.55 25.5181 115.352 24.544C116.192 23.5039 117.326 22.9839 118.754 22.9839C120.156 22.9839 121.218 23.5039 121.939 24.544C122.51 25.3681 122.797 26.3899 122.797 27.6033ZM120.735 27.0427C120.75 26.401 120.609 25.8486 120.315 25.3813C119.941 24.7791 119.365 24.4791 118.594 24.4791C117.887 24.4791 117.311 24.772 116.873 25.36C116.513 25.8273 116.299 26.3889 116.233 27.0407L120.735 27.0427Z" fill="white"/>
<path d="M44.7731 14.6648C44.1719 14.6648 43.6517 14.6354 43.2188 14.5857V8.06367C43.8243 7.97015 44.4362 7.92405 45.0489 7.9258C47.5281 7.9258 48.6698 9.14527 48.6698 11.1331C48.6698 13.4261 47.3212 14.6648 44.7731 14.6648ZM45.1361 8.7621C44.8015 8.7621 44.5166 8.78237 44.2804 8.83103V13.789C44.4081 13.8092 44.6535 13.8184 44.9982 13.8184C46.6226 13.8184 47.5473 12.8939 47.5473 11.1625C47.5473 9.61866 46.7108 8.7621 45.1361 8.7621ZM52.2277 14.7145C50.8305 14.7145 49.925 13.6714 49.925 12.2553C49.925 10.7793 50.8498 9.72713 52.3068 9.72713C53.6838 9.72713 54.6095 10.7205 54.6095 12.1772C54.6095 13.6714 53.6554 14.7145 52.2277 14.7145ZM52.2683 10.5036C51.5007 10.5036 51.009 11.2213 51.009 12.2248C51.009 13.2091 51.5109 13.9268 52.2582 13.9268C53.0054 13.9268 53.5074 13.1595 53.5074 12.2046C53.5074 11.2314 53.0156 10.5036 52.2683 10.5036ZM62.5772 9.82545L61.0816 14.606H60.1072L59.4877 12.53C59.3336 12.0222 59.2054 11.5069 59.1034 10.9861H59.0831C59.005 11.5072 58.857 12.0292 58.6998 12.53L58.0407 14.606H57.0562L55.6488 9.82545H56.7409L57.2823 12.0981C57.4101 12.6394 57.5175 13.1503 57.6068 13.6329H57.627C57.7051 13.2304 57.8329 12.7276 58.0205 12.1083L58.6998 9.82647H59.5657L60.2157 12.0596C60.3728 12.6009 60.5006 13.1321 60.6 13.6339H60.6284C60.6973 13.1422 60.8058 12.6202 60.9528 12.0596L61.5338 9.82647L62.5772 9.82545ZM68.083 14.606H67.0203V11.8609C67.0203 11.0155 66.6959 10.5918 66.0561 10.5918C65.4264 10.5918 64.9934 11.1331 64.9934 11.7626V14.606H63.9308V11.1919C63.9308 10.7692 63.9207 10.3161 63.8913 9.82444H64.8261L64.8758 10.5624H64.9052C65.1912 10.0515 65.7711 9.72713 66.4211 9.72713C67.4249 9.72713 68.084 10.4945 68.084 11.7433L68.083 14.606ZM71.0133 14.606H69.9496V7.63184H71.0133V14.606ZM74.8876 14.7145C73.4914 14.7145 72.5849 13.6714 72.5849 12.2553C72.5849 10.7793 73.5096 9.72713 74.9657 9.72713C76.3436 9.72713 77.2684 10.7205 77.2684 12.1772C77.2694 13.6714 76.3142 14.7145 74.8876 14.7145ZM74.9271 10.5036C74.1596 10.5036 73.6678 11.2213 73.6678 12.2248C73.6678 13.2091 74.1707 13.9268 74.916 13.9268C75.6643 13.9268 76.1652 13.1595 76.1652 12.2046C76.1662 11.2314 75.6754 10.5036 74.9271 10.5036ZM81.458 14.606L81.381 14.0556H81.3526C81.0281 14.4985 80.5546 14.7145 79.9543 14.7145C79.0975 14.7145 78.4892 14.1144 78.4892 13.3075C78.4892 12.1275 79.5123 11.5173 81.2836 11.5173V11.4291C81.2836 10.7996 80.95 10.4843 80.291 10.4843C79.8195 10.4843 79.4058 10.603 79.0418 10.8391L78.8258 10.1407C79.2679 9.86499 79.8195 9.72713 80.4674 9.72713C81.7166 9.72713 82.3473 10.386 82.3473 11.7048V13.4656C82.3473 13.9481 82.3686 14.3222 82.4162 14.607L81.458 14.606ZM81.312 12.2248C80.1318 12.2248 79.5396 12.5107 79.5396 13.1889C79.5396 13.6906 79.8448 13.936 80.2687 13.936C80.8091 13.936 81.312 13.5234 81.312 12.9628V12.2248ZM87.5073 14.606L87.4576 13.8386H87.4282C87.123 14.4185 86.6099 14.7145 85.8931 14.7145C84.7402 14.7145 83.8865 13.7008 83.8865 12.2745C83.8865 10.7793 84.7716 9.72611 85.9803 9.72611C86.6201 9.72611 87.0733 9.94203 87.3288 10.3759H87.3501V7.63184H88.4138V13.3176C88.4138 13.7798 88.4249 14.2127 88.4533 14.606H87.5073ZM87.3501 11.793C87.3501 11.124 86.907 10.5533 86.2307 10.5533C85.4429 10.5533 84.9613 11.2517 84.9613 12.235C84.9613 13.199 85.4611 13.8589 86.2094 13.8589C86.8776 13.8589 87.3501 13.2781 87.3501 12.5898V11.793ZM95.1576 14.7145C93.7614 14.7145 92.8559 13.6714 92.8559 12.2553C92.8559 10.7793 93.7806 9.72713 95.2367 9.72713C96.6146 9.72713 97.5394 10.7205 97.5394 12.1772C97.5404 13.6714 96.5862 14.7145 95.1576 14.7145ZM95.1971 10.5036C94.4306 10.5036 93.9388 11.2213 93.9388 12.2248C93.9388 13.2091 94.4407 13.9268 95.187 13.9268C95.9353 13.9268 96.4362 13.1595 96.4362 12.2046C96.4382 11.2314 95.9464 10.5036 95.1971 10.5036ZM103.254 14.606H102.19V11.8609C102.19 11.0155 101.866 10.5918 101.226 10.5918C100.596 10.5918 100.164 11.1331 100.164 11.7626V14.606H99.1008V11.1919C99.1008 10.7692 99.0907 10.3161 99.0613 9.82444H99.9962L100.046 10.5624H100.075C100.36 10.0515 100.941 9.72611 101.59 9.72611C102.594 9.72611 103.254 10.4935 103.254 11.7423V14.606ZM110.403 10.6222H109.234V12.9436C109.234 13.5345 109.439 13.8295 109.853 13.8295C110.04 13.8295 110.198 13.8092 110.324 13.7798L110.354 14.5867C110.148 14.6658 109.872 14.7053 109.529 14.7053C108.692 14.7053 108.191 14.2431 108.191 13.0328V10.6222H107.493V9.82545H108.191V8.94963L109.234 8.63437V9.82444H110.403V10.6222ZM116.029 14.606H114.967V11.8812C114.967 11.0257 114.644 10.5928 114.003 10.5928C113.452 10.5928 112.939 10.9669 112.939 11.7241V14.606H111.878V7.63184H112.939V10.5036H112.961C113.295 9.98257 113.78 9.72611 114.398 9.72611C115.41 9.72611 116.029 10.5127 116.029 11.7626V14.606ZM121.792 12.4712H118.603C118.624 13.3764 119.223 13.8873 120.11 13.8873C120.581 13.8873 121.015 13.8082 121.399 13.6612L121.564 14.3992C121.112 14.5959 120.579 14.6942 119.96 14.6942C118.464 14.6942 117.579 13.7494 117.579 12.2847C117.579 10.8189 118.486 9.71699 119.84 9.71699C121.062 9.71699 121.829 10.6222 121.829 11.9897C121.836 12.1511 121.823 12.3127 121.792 12.4712ZM120.818 11.714C120.818 10.976 120.446 10.455 119.766 10.455C119.156 10.455 118.673 10.9861 118.604 11.714H120.818Z" fill="white"/>
</svg>
