<svg width="100%" height="100%" viewBox="0 0 280 280" fill="none" xmlns="http://www.w3.org/2000/svg">
<path d="M96 140L125.333 169.333L184 110.667M272 140C272 157.334 268.586 174.499 261.952 190.514C255.318 206.529 245.595 221.081 233.338 233.338C221.081 245.595 206.529 255.318 190.514 261.952C174.499 268.586 157.334 272 140 272C122.666 272 105.501 268.586 89.4858 261.952C73.4708 255.318 58.9192 245.595 46.6619 233.338C34.4046 221.081 24.6815 206.529 18.0479 190.514C11.4143 174.499 8 157.334 8 140C8 104.991 21.9071 71.4167 46.6619 46.6619C71.4167 21.9071 104.991 8 140 8C175.009 8 208.583 21.9071 233.338 46.6619C258.093 71.4167 272 104.991 272 140Z" stroke="#3B6D71" stroke-width="15" stroke-linecap="round" stroke-linejoin="round"/>
</svg>
