<svg width="28" height="21" viewBox="0 0 28 21" fill="none" xmlns="http://www.w3.org/2000/svg">
<path d="M27.8732 5.58008V18.0836C27.8732 18.7687 27.5795 19.4258 27.0568 19.9103C26.5341 20.3948 25.8251 20.667 25.0859 20.667H2.78732C2.04808 20.667 1.33911 20.3948 0.816387 19.9103C0.293663 19.4258 0 18.7687 0 18.0836V6.058L2.78732 7.46594L13.2676 12.7618C13.4731 12.8646 13.7031 12.9179 13.9366 12.9168C14.182 12.9145 14.4224 12.8521 14.6334 12.736L25.0859 7.09135L27.8732 5.58008Z" fill="#3B6D71"/>
<path d="M27.8732 2.58337L25.0859 4.10756L13.9366 10.1397L2.78732 4.5209L0 3.10004V2.58337C0 1.89822 0.293663 1.24113 0.816387 0.756651C1.33911 0.272175 2.04808 0 2.78732 0H25.0859C25.8251 0 26.5341 0.272175 27.0568 0.756651C27.5795 1.24113 27.8732 1.89822 27.8732 2.58337Z" fill="#3B6D71"/>
</svg>
