<svg width="30" height="30" viewBox="0 0 30 30" fill="none" xmlns="http://www.w3.org/2000/svg">
<path d="M29.9997 14.9072C29.9647 12.0311 29.1134 9.22493 27.5462 6.81925C25.979 4.41357 23.7614 2.50854 21.1543 1.32853C18.5471 0.148517 15.6591 -0.257328 12.8304 0.158762C10.0018 0.57487 7.35014 1.79558 5.18788 3.67718C3.02561 5.55876 1.44275 8.02285 0.62569 10.7792C-0.191346 13.5356 -0.208559 16.4695 0.576114 19.2354C1.36079 22.0014 2.91464 24.484 5.0547 26.3911C7.19474 28.2983 9.83187 29.5504 12.6555 30V19.303H8.90539V14.9072H12.6555V11.5679C12.5687 10.7915 12.6523 10.0053 12.9005 9.26496C13.1488 8.52459 13.5555 7.84805 14.092 7.28311C14.6284 6.71815 15.2815 6.27855 16.0053 5.99535C16.729 5.71214 17.5059 5.59221 18.2806 5.64405C19.4053 5.65954 20.5273 5.76045 21.637 5.94591V9.71911H19.7619C19.4387 9.67807 19.1102 9.71067 18.8012 9.81449C18.492 9.91831 18.2099 10.0907 17.9759 10.3189C17.7419 10.5471 17.5619 10.8253 17.4492 11.1329C17.3364 11.4406 17.2938 11.7698 17.3244 12.0962V14.9449H21.487L20.812 19.3407H17.3431V29.9057C20.8868 29.3418 24.1122 27.5186 26.4343 24.7668C28.7564 22.015 30.0213 18.517 29.9997 14.9072Z" fill="#3B6D71"/>
</svg>
