<svg width="26" height="26" viewBox="0 0 26 26" fill="none" xmlns="http://www.w3.org/2000/svg">
<path d="M9.8111 2.13878L10.8657 4.02855C11.8175 5.73396 11.4354 7.97116 9.93639 9.4702C9.93639 9.4702 8.1183 11.2886 11.4148 14.5852C14.7103 17.8807 16.5298 16.0636 16.5298 16.0636C18.0289 14.5646 20.266 14.1825 21.9715 15.1343L23.8612 16.1889C26.4365 17.6261 26.7405 21.2375 24.477 23.5011C23.1169 24.8613 21.4506 25.9196 19.6087 25.9893C16.508 26.107 11.2422 25.3223 5.96001 20.04C0.677839 14.7578 -0.106905 9.492 0.0106471 6.39129C0.0804733 4.54936 1.1388 2.88313 2.49894 1.523C4.76249 -0.740546 8.3739 -0.436411 9.8111 2.13878Z" fill="#3B6D71"/>
</svg>
